<svg xmlns="http://www.w3.org/2000/svg" version="1.1" viewBox="0 0 603.2115710523344 256.82902481812494" width="603.2115710523344" height="256.82902481812494">
  <!-- svg-source:excalidraw -->
  
  <defs>
    <style class="style-fonts">
      @font-face {
        font-family: "Virgil";
        src: url("https://excalidraw.com/Virgil.woff2");
      }
      @font-face {
        font-family: "Cascadia";
        src: url("https://excalidraw.com/Cascadia.woff2");
      }
      @font-face {
        font-family: "Assistant";
        src: url("https://excalidraw.com/Assistant-Regular.woff2");
      }
    </style>
    
  </defs>
  <rect x="0" y="0" width="603.2115710523344" height="256.82902481812494" fill="#ffffff"/><g stroke-linecap="round" transform="translate(10 10) rotate(0 291.6057855261672 118.41451240906247)"><path d="M7.86 8.16 C7.86 8.16, 7.86 8.16, 7.86 8.16 M7.86 8.16 C7.86 8.16, 7.86 8.16, 7.86 8.16 M2.15 17.77 C4.92 12.84, 10.81 6.11, 13.31 4.94 M2.15 17.77 C5.88 13.99, 9.05 8.47, 13.31 4.94 M3.66 19.09 C10.65 12.24, 12.87 8.16, 18.1 2.48 M3.66 19.09 C7.84 14.68, 13.11 7.97, 18.1 2.48 M3.21 22.66 C6.71 18.39, 11.29 13.27, 21.57 1.53 M3.21 22.66 C8.54 16.97, 14.62 9.32, 21.57 1.53 M2.75 26.24 C11.97 16.31, 18.87 5.79, 24.4 1.33 M2.75 26.24 C8.09 19.67, 14.33 11.98, 24.4 1.33 M0.32 32.08 C6.23 21.58, 13.48 16.19, 27.22 1.13 M0.32 32.08 C7.65 23.53, 16.23 12.71, 27.22 1.13 M0.52 34.9 C8.03 26.04, 14.53 19.12, 30.7 0.18 M0.52 34.9 C10.54 24.51, 20.59 13.41, 30.7 0.18 M0.06 38.48 C8.31 27.91, 18.43 16.2, 32.86 0.74 M0.06 38.48 C9.24 27.82, 15.65 19.87, 32.86 0.74 M0.26 41.3 C13.9 24.98, 26.24 9.91, 35.68 0.54 M0.26 41.3 C11.17 26.81, 24.47 12.09, 35.68 0.54 M0.45 44.12 C8.04 36.91, 16.06 25.77, 37.85 1.1 M0.45 44.12 C14.13 26.61, 29.96 10.15, 37.85 1.1 M-0.01 47.7 C13.86 35.17, 25.3 18.51, 40.67 0.9 M-0.01 47.7 C10.81 33.9, 23.75 21.05, 40.67 0.9 M0.19 50.52 C8.62 40.08, 18.12 29.7, 43.49 0.71 M0.19 50.52 C17.12 29.91, 34.71 10.86, 43.49 0.71 M0.39 53.34 C14.69 36.73, 30.59 18.63, 46.31 0.51 M0.39 53.34 C17.84 33.71, 34.92 13.05, 46.31 0.51 M0.59 56.16 C12.64 41.68, 22.29 29.21, 48.48 1.07 M0.59 56.16 C18.25 36.3, 34.83 15.79, 48.48 1.07 M0.13 59.74 C14.05 44.32, 23.91 33.65, 51.3 0.87 M0.13 59.74 C13.87 44.34, 29.73 26.81, 51.3 0.87 M0.32 62.56 C13.07 47.58, 22.41 36.62, 54.12 0.67 M0.32 62.56 C17.8 41.5, 36.71 20.42, 54.12 0.67 M0.52 65.38 C18.45 43.16, 36.1 25.25, 56.94 0.47 M0.52 65.38 C19.52 44.9, 36.65 23.49, 56.94 0.47 M0.06 68.96 C21.78 43.74, 43.84 17.97, 59.11 1.03 M0.06 68.96 C15.16 52.59, 28.29 36.51, 59.11 1.03 M0.26 71.78 C23.64 42.23, 50.52 15.42, 61.93 0.83 M0.26 71.78 C15.46 54.35, 32.32 36.4, 61.93 0.83 M0.46 74.6 C14.53 58.52, 30.05 41.31, 64.75 0.64 M0.46 74.6 C21.04 50, 44.22 24.47, 64.75 0.64 M0.65 77.42 C17.04 58.99, 33.07 40.7, 67.57 0.44 M0.65 77.42 C23.85 49.53, 48.93 22.41, 67.57 0.44 M0.2 81 C21.54 55.99, 44.79 27.45, 69.74 1 M0.2 81 C25.5 54.14, 49.48 26.65, 69.74 1 M0.39 83.82 C20.75 62.12, 40.95 37.66, 72.56 0.8 M0.39 83.82 C20.27 61.34, 37.98 40.16, 72.56 0.8 M0.59 86.64 C26.88 60.03, 52.33 30.47, 75.38 0.6 M0.59 86.64 C28.14 56.38, 52.72 27.06, 75.38 0.6 M0.13 90.22 C26.73 59.39, 54.98 30.11, 78.2 0.41 M0.13 90.22 C27.18 58.72, 55.06 25.99, 78.2 0.41 M0.33 93.04 C29.82 62.54, 55.77 28.89, 80.37 0.96 M0.33 93.04 C22.62 67.92, 46.14 41.6, 80.37 0.96 M0.53 95.86 C25.49 64.8, 52.55 33.94, 83.19 0.77 M0.53 95.86 C33.86 58.36, 65.6 21.34, 83.19 0.77 M0.72 98.68 C31.92 62.07, 60.48 28.6, 86.01 0.57 M0.72 98.68 C18.96 79.38, 37.53 56.57, 86.01 0.57 M0.26 102.26 C20.12 76.66, 42.65 52.19, 88.83 0.37 M0.26 102.26 C23.63 76.03, 46.54 48.38, 88.83 0.37 M0.46 105.08 C37.85 62.5, 73.96 21.56, 91 0.93 M0.46 105.08 C28.53 74.84, 54.29 42.48, 91 0.93 M0.66 107.9 C26.09 78.96, 49.79 53.5, 93.82 0.73 M0.66 107.9 C23.14 81.46, 45.09 57.23, 93.82 0.73 M0.2 111.48 C21.56 86.01, 43.86 63.03, 96.64 0.53 M0.2 111.48 C20.57 86.63, 41.61 62.12, 96.64 0.53 M0.4 114.3 C25.85 87.82, 47.68 59.28, 98.81 1.09 M0.4 114.3 C29.78 79.63, 60.79 43.01, 98.81 1.09 M0.6 117.12 C41.97 72.22, 80.82 28.13, 101.63 0.89 M0.6 117.12 C35.41 78.46, 68.42 38.08, 101.63 0.89 M0.79 119.94 C39.38 77.14, 81.7 30.8, 104.45 0.7 M0.79 119.94 C26.05 89.34, 52.56 59.56, 104.45 0.7 M0.33 123.52 C40.88 78.18, 81.61 29.46, 107.27 0.5 M0.33 123.52 C38.32 79.51, 75.96 36.14, 107.27 0.5 M0.53 126.34 C43.32 77.5, 87.74 30.63, 109.44 1.06 M0.53 126.34 C42.62 78.52, 85.66 30.05, 109.44 1.06 M0.73 129.16 C36.53 89.03, 69.32 49.29, 112.26 0.86 M0.73 129.16 C27.33 98.91, 50.41 70.69, 112.26 0.86 M0.27 132.74 C35.11 96.86, 64.95 60.43, 115.08 0.66 M0.27 132.74 C44.51 80.19, 89.7 30.02, 115.08 0.66 M0.47 135.56 C26.34 106.53, 53.94 75.57, 117.9 0.46 M0.47 135.56 C31.83 100.81, 63.08 65.06, 117.9 0.46 M0.66 138.38 C28.41 107.26, 53.44 74.26, 120.07 1.02 M0.66 138.38 C32.6 102.61, 62.69 65.33, 120.07 1.02 M0.21 141.96 C43.99 93.21, 88.86 41.94, 122.89 0.82 M0.21 141.96 C29.23 107.28, 57.37 73.64, 122.89 0.82 M0.4 144.78 C35.87 102.69, 70.12 63.96, 125.71 0.63 M0.4 144.78 C28.71 113.43, 56.31 82.39, 125.71 0.63 M0.6 147.6 C31.1 105.92, 67.5 68.46, 128.53 0.43 M0.6 147.6 C35.96 109.46, 70.31 69.12, 128.53 0.43 M0.8 150.42 C35.48 111.21, 71.87 69.39, 130.7 0.99 M0.8 150.42 C49.61 91.76, 99.1 34.62, 130.7 0.99 M0.34 154 C48.11 100.66, 95.01 50.01, 133.52 0.79 M0.34 154 C46.13 100.36, 93.04 47.99, 133.52 0.79 M0.54 156.82 C35.95 115.87, 69.55 77.07, 136.34 0.59 M0.54 156.82 C36.42 117.1, 70.75 76.66, 136.34 0.59 M0.73 159.64 C44.96 110.1, 89.38 57.44, 139.16 0.4 M0.73 159.64 C53.52 98.41, 107.6 36.56, 139.16 0.4 M0.27 163.22 C40.77 113.94, 85.66 63.19, 141.33 0.95 M0.27 163.22 C37.26 118.86, 76.7 74.39, 141.33 0.95 M0.47 166.04 C41.83 116.09, 85.81 68.12, 144.15 0.76 M0.47 166.04 C55.89 101.04, 109.7 36.97, 144.15 0.76 M0.67 168.86 C50.1 109.43, 104.36 52.01, 146.97 0.56 M0.67 168.86 C36.2 128.14, 73.7 84.76, 146.97 0.56 M0.87 171.68 C54.85 114.39, 103.89 51.64, 149.14 1.12 M0.87 171.68 C42.08 121.7, 85.3 74.17, 149.14 1.12 M0.41 175.26 C41.13 123.97, 85.45 73.89, 151.96 0.92 M0.41 175.26 C51.08 116.79, 99.44 60.7, 151.96 0.92 M0.61 178.08 C50.68 118.2, 102.57 58.58, 154.78 0.72 M0.61 178.08 C42.2 130.5, 84.44 80.52, 154.78 0.72 M0.8 180.9 C47.02 129.84, 89.27 76.67, 157.6 0.52 M0.8 180.9 C36.38 139.85, 73.58 98.28, 157.6 0.52 M0.34 184.48 C39.69 138.7, 79.87 95.07, 159.77 1.08 M0.34 184.48 C49.6 125.24, 101.02 68.21, 159.77 1.08 M0.54 187.3 C46.5 135.13, 91.95 84.99, 162.59 0.88 M0.54 187.3 C35.16 147.73, 70.06 108.54, 162.59 0.88 M0.74 190.12 C47.39 135.65, 97.13 79.51, 165.41 0.69 M0.74 190.12 C35.41 151.3, 68.58 113.45, 165.41 0.69 M0.94 192.94 C48.29 138.28, 94.34 84.38, 168.23 0.49 M0.94 192.94 C53.95 134.41, 105.06 74.87, 168.23 0.49 M0.48 196.52 C36.7 158.09, 70.04 117.5, 170.4 1.05 M0.48 196.52 C52.18 136.59, 104.95 75.39, 170.4 1.05 M0.67 199.34 C44.62 146, 89.95 93.38, 173.22 0.85 M0.67 199.34 C47.82 145.5, 96.03 88.65, 173.22 0.85 M0.87 202.16 C61.25 133.82, 118.54 64.22, 176.04 0.65 M0.87 202.16 C42.83 153.19, 85.02 103.99, 176.04 0.65 M0.41 205.74 C49.04 146.37, 100.09 90.26, 178.86 0.45 M0.41 205.74 C47.74 148.57, 96.33 93.02, 178.86 0.45 M0.61 208.56 C67.02 133.71, 133.78 56.19, 181.03 1.01 M0.61 208.56 C67.95 134.19, 134.01 56.84, 181.03 1.01 M0.81 211.38 C64.51 137.89, 131.16 62.69, 183.85 0.81 M0.81 211.38 C64.95 139.35, 129.14 65.71, 183.85 0.81 M1.66 213.45 C71.82 131.07, 141.21 52.97, 186.67 0.62 M1.66 213.45 C58.45 146.06, 117.69 78.93, 186.67 0.62 M2.51 215.51 C71.31 133.83, 141.22 54.79, 189.49 0.42 M2.51 215.51 C73.02 136.36, 141.51 55.75, 189.49 0.42 M3.37 217.58 C75.36 134.4, 148.12 48.62, 191.66 0.98 M3.37 217.58 C53.81 161.28, 103.59 104.14, 191.66 0.98 M4.22 219.65 C79.25 131.45, 155.33 43.37, 194.48 0.78 M4.22 219.65 C64.32 152.26, 122.68 83.27, 194.48 0.78 M4.42 222.47 C47 169.51, 92.79 119.31, 197.3 0.58 M4.42 222.47 C50.49 167.61, 97.93 112.72, 197.3 0.58 M5.27 224.53 C75.76 144.3, 144.31 65.93, 200.12 0.39 M5.27 224.53 C71.04 147.11, 138.25 70.09, 200.12 0.39 M6.78 225.85 C54.93 169.17, 101.93 113.74, 202.29 0.94 M6.78 225.85 C56.39 167.89, 104.93 110.39, 202.29 0.94 M7.63 227.91 C76.79 147.33, 145.03 70.21, 205.11 0.75 M7.63 227.91 C76.18 150.79, 143.68 71.62, 205.11 0.75 M9.14 229.23 C53.57 179.69, 100.98 127.86, 207.93 0.55 M9.14 229.23 C75.03 154.41, 140.68 80.11, 207.93 0.55 M10.65 230.54 C82.27 149.73, 150.14 67.05, 210.09 1.11 M10.65 230.54 C91.15 138.94, 170.76 46.78, 210.09 1.11 M12.16 231.85 C62 174.73, 111.95 114.52, 212.92 0.91 M12.16 231.85 C67.51 169.45, 120.99 108.53, 212.92 0.91 M13.67 233.16 C74.41 161.55, 134.8 92.18, 215.74 0.71 M13.67 233.16 C72.53 164.19, 131.47 96.45, 215.74 0.71 M15.18 234.47 C65.81 177.38, 115.71 118.02, 218.56 0.51 M15.18 234.47 C79.25 159.65, 144.58 84.54, 218.56 0.51 M17.35 235.03 C59.31 187.52, 102.83 137.3, 220.72 1.07 M17.35 235.03 C61.98 184.56, 106.52 134.22, 220.72 1.07 M19.51 235.59 C66.2 178.59, 114.81 123.52, 223.55 0.87 M19.51 235.59 C80.06 166.62, 142.17 96.46, 223.55 0.87 M21.68 236.15 C76.39 173.46, 131.17 110.34, 226.37 0.68 M21.68 236.15 C78.59 171.92, 133.73 107.56, 226.37 0.68 M23.84 236.7 C83.64 167.91, 140.45 101.8, 229.19 0.48 M23.84 236.7 C77.36 173.82, 131.73 111.24, 229.19 0.48 M26.01 237.26 C91.69 160.43, 156.39 85.77, 231.36 1.04 M26.01 237.26 C99.31 152.66, 172.19 68.26, 231.36 1.04 M28.83 237.06 C101.81 152.01, 175.97 68.74, 234.18 0.84 M28.83 237.06 C77.83 180.57, 125.44 126.74, 234.18 0.84 M31 237.62 C110.58 147.11, 190.01 54.89, 237 0.64 M31 237.62 C88.8 170.68, 147.24 102.93, 237 0.64 M33.16 238.18 C87.22 177.39, 141.06 117.65, 239.82 0.45 M33.16 238.18 C89.5 172.07, 146.18 107.05, 239.82 0.45 M35.98 237.98 C111.08 152.62, 184.07 65.62, 241.99 1 M35.98 237.98 C88.82 177.58, 140.96 116.64, 241.99 1 M38.8 237.78 C98.96 167.66, 162.62 97.04, 244.81 0.81 M38.8 237.78 C81.57 187.14, 125.6 135.73, 244.81 0.81 M40.97 238.34 C105.64 165.06, 170.04 90.13, 247.63 0.61 M40.97 238.34 C122.06 145.02, 204.24 50.84, 247.63 0.61 M43.79 238.14 C88.54 188.54, 134.63 137.64, 250.45 0.41 M43.79 238.14 C112.78 156.11, 182.74 75.65, 250.45 0.41 M46.61 237.95 C124.22 149.71, 199.73 61.62, 252.62 0.97 M46.61 237.95 C94 184.96, 138.05 132.99, 252.62 0.97 M49.43 237.75 C101.38 173.52, 157.11 112.8, 255.44 0.77 M49.43 237.75 C107.49 170.9, 165.79 105.16, 255.44 0.77 M51.6 238.31 C102.83 179.43, 153.09 120.34, 258.26 0.57 M51.6 238.31 C123.6 152.82, 197.17 69.12, 258.26 0.57 M54.42 238.11 C120.03 161.6, 185.23 83.59, 261.08 0.38 M54.42 238.11 C122.94 161.71, 190.67 85.51, 261.08 0.38 M57.24 237.91 C119.6 163.34, 183.85 90.67, 263.25 0.93 M57.24 237.91 C103.79 183.63, 150.44 127.89, 263.25 0.93 M60.06 237.71 C138.49 146.78, 218.21 55.48, 266.07 0.74 M60.06 237.71 C124.54 162.05, 190.47 84.93, 266.07 0.74 M62.23 238.27 C123.6 166.14, 183.35 96.59, 268.89 0.54 M62.23 238.27 C141.85 147.82, 221.51 56.87, 268.89 0.54 M65.05 238.08 C121.49 174.83, 179.76 108.95, 271.05 1.1 M65.05 238.08 C139.98 150.49, 216.99 62.02, 271.05 1.1 M67.87 237.88 C117.94 180.8, 166.15 124.45, 273.88 0.9 M67.87 237.88 C140.58 156.5, 212.31 72.78, 273.88 0.9 M70.69 237.68 C138.24 159.69, 205.12 83.8, 276.7 0.7 M70.69 237.68 C135.18 160.45, 202.84 84.08, 276.7 0.7 M72.86 238.24 C137.22 165.99, 198.57 91.95, 279.52 0.5 M72.86 238.24 C150.6 149.64, 227.89 60.81, 279.52 0.5 M75.68 238.04 C136.58 169.2, 195.33 98.78, 281.68 1.06 M75.68 238.04 C135.09 168.82, 194.87 100.17, 281.68 1.06 M78.5 237.84 C150.25 151.12, 226.57 66.76, 284.51 0.86 M78.5 237.84 C139.81 165.77, 203.96 93.95, 284.51 0.86 M81.32 237.65 C134.19 177.16, 187.96 113.35, 287.33 0.67 M81.32 237.65 C150.79 157.64, 219.14 77.05, 287.33 0.67 M83.49 238.2 C128.51 184.42, 177.87 128.6, 290.15 0.47 M83.49 238.2 C145.19 165.45, 206.83 94.55, 290.15 0.47 M86.31 238.01 C153.55 163.49, 218.95 87.59, 292.31 1.03 M86.31 238.01 C162.53 149, 239.23 59.13, 292.31 1.03 M89.13 237.81 C133.11 189.14, 174.56 138.66, 295.14 0.83 M89.13 237.81 C154.27 163.35, 219.48 89.2, 295.14 0.83 M91.95 237.61 C153.83 164.79, 215.34 95.26, 297.96 0.63 M91.95 237.61 C151.54 170.03, 209.98 102.7, 297.96 0.63 M94.12 238.17 C168.36 152.36, 242.3 68.47, 300.78 0.44 M94.12 238.17 C136.66 188.37, 180.05 138.39, 300.78 0.44 M96.94 237.97 C143.6 182.28, 191.17 127.54, 302.94 0.99 M96.94 237.97 C178.92 145.68, 257.99 53.08, 302.94 0.99 M99.76 237.77 C146.33 181.7, 193.21 128.19, 305.77 0.8 M99.76 237.77 C150.36 176.37, 202.43 117.04, 305.77 0.8 M101.93 238.33 C157.25 173.88, 214.81 108.55, 308.59 0.6 M101.93 238.33 C180.76 148.71, 257.51 60.62, 308.59 0.6 M104.75 238.13 C169.92 164.02, 235.47 88.69, 311.41 0.4 M104.75 238.13 C148.91 185.84, 194.8 133.38, 311.41 0.4 M107.57 237.94 C152.99 187.68, 197.4 137, 313.57 0.96 M107.57 237.94 C183.36 150.62, 261.04 62.49, 313.57 0.96 M110.39 237.74 C193.12 142.76, 274.13 48.87, 316.4 0.76 M110.39 237.74 C170.06 171.89, 227.22 105.1, 316.4 0.76 M112.56 238.3 C183.88 154.09, 256.93 71.24, 319.22 0.56 M112.56 238.3 C168.79 171.58, 226.22 105.36, 319.22 0.56 M115.38 238.1 C163.51 183.42, 209.54 128.6, 321.38 1.12 M115.38 238.1 C180.52 162.09, 248.39 85.88, 321.38 1.12 M118.2 237.9 C201.23 144.99, 280.82 49.61, 324.2 0.92 M118.2 237.9 C167.69 181.7, 216.73 124.96, 324.2 0.92 M121.02 237.71 C166.24 187.18, 211.97 136.22, 327.03 0.73 M121.02 237.71 C167.57 183.41, 216.32 128.7, 327.03 0.73 M123.19 238.26 C207 145.01, 287.01 50.23, 329.85 0.53 M123.19 238.26 C196.29 154.46, 268.08 71.15, 329.85 0.53 M126.01 238.07 C202.61 153.07, 274.5 67.39, 332.01 1.09 M126.01 238.07 C210.36 142.43, 291.72 48.15, 332.01 1.09 M128.83 237.87 C173.46 185.5, 216.92 136.33, 334.83 0.89 M128.83 237.87 C204.57 149.61, 282.02 59.8, 334.83 0.89 M131.65 237.67 C196.73 163.25, 260.07 86.9, 337.66 0.69 M131.65 237.67 C176.94 187.29, 221.66 135.2, 337.66 0.69 M133.82 238.23 C180.05 183.34, 226.17 130.45, 340.48 0.49 M133.82 238.23 C178.98 184.3, 224.38 133.08, 340.48 0.49 M136.64 238.03 C201.38 164.36, 264.24 93.77, 342.64 1.05 M136.64 238.03 C216.72 147.55, 295.85 56.22, 342.64 1.05 M139.46 237.83 C188.74 182.32, 238.27 126.28, 345.46 0.85 M139.46 237.83 C191.21 177.84, 243.64 118.28, 345.46 0.85 M142.28 237.64 C191.66 182.82, 240.56 124.41, 348.29 0.66 M142.28 237.64 C186.13 187.61, 230.38 136.38, 348.29 0.66 M144.45 238.19 C224.14 150.85, 298.9 63.87, 351.11 0.46 M144.45 238.19 C223.18 145.32, 303.56 54.12, 351.11 0.46 M147.27 238 C226.21 148.38, 303.07 58.43, 353.27 1.02 M147.27 238 C213.38 163.59, 277.21 89.37, 353.27 1.02 M150.09 237.8 C224.55 151.23, 299.71 62.6, 356.09 0.82 M150.09 237.8 C194.3 189.23, 236.57 139.42, 356.09 0.82 M152.26 238.36 C205.21 174.73, 260.8 111.54, 358.92 0.62 M152.26 238.36 C210.33 167.75, 271.08 99.64, 358.92 0.62 M155.08 238.16 C213.79 167.33, 275.04 98.87, 361.74 0.43 M155.08 238.16 C203.97 184.29, 251.79 128.61, 361.74 0.43 M157.9 237.96 C201.89 190.36, 243.16 140.32, 363.9 0.98 M157.9 237.96 C212.55 174.42, 267.56 111.08, 363.9 0.98 M160.72 237.76 C204.88 184.91, 251.59 133.31, 366.72 0.79 M160.72 237.76 C214.28 178.79, 265.5 119.97, 366.72 0.79 M162.89 238.32 C244.54 145.8, 324.11 51.9, 369.55 0.59 M162.89 238.32 C239.19 150.06, 316.32 61.61, 369.55 0.59 M165.71 238.12 C242.08 153.11, 317.21 64.47, 372.37 0.39 M165.71 238.12 C207.29 190.53, 248.19 143.55, 372.37 0.39 M168.53 237.93 C243.06 150.59, 319.94 62.94, 374.53 0.95 M168.53 237.93 C217.22 185.66, 263.65 131.97, 374.53 0.95 M171.35 237.73 C240.2 156.63, 312.77 73.63, 377.35 0.75 M171.35 237.73 C228.02 171.96, 285.73 106.76, 377.35 0.75 M173.52 238.29 C245.3 155.5, 320.02 72.32, 380.18 0.55 M173.52 238.29 C230.44 174.89, 285.57 111.77, 380.18 0.55 M176.34 238.09 C238.49 166.03, 301.71 96.39, 382.34 1.11 M176.34 238.09 C223.19 184.85, 270.25 131.1, 382.34 1.11 M179.16 237.89 C249.96 158.42, 321.62 76.4, 385.16 0.91 M179.16 237.89 C227.4 181.78, 276.16 126.57, 385.16 0.91 M181.98 237.7 C223.73 188.75, 266.27 139.67, 387.98 0.72 M181.98 237.7 C233.32 177.41, 286.16 117.76, 387.98 0.72 M184.15 238.25 C267.19 143.71, 347.78 49.74, 390.81 0.52 M184.15 238.25 C238.36 174.19, 292.86 111.38, 390.81 0.52 M186.97 238.06 C256.05 158.59, 323.28 79.72, 392.97 1.08 M186.97 238.06 C249.15 165.05, 313.07 92.02, 392.97 1.08 M189.79 237.86 C261.89 154.22, 333.33 72.89, 395.79 0.88 M189.79 237.86 C231.93 189.34, 274.57 139.68, 395.79 0.88 M192.61 237.66 C273.52 142.74, 354.52 48.67, 398.61 0.68 M192.61 237.66 C234.09 188.39, 277.23 139.19, 398.61 0.68 M194.78 238.22 C256.83 168.95, 315.24 98.32, 401.44 0.48 M194.78 238.22 C258.41 161.1, 324.85 85.83, 401.44 0.48 M197.6 238.02 C243.84 185.27, 288.31 134.81, 403.6 1.04 M197.6 238.02 C265.93 159.85, 331.75 83.83, 403.6 1.04 M200.42 237.82 C265.2 163.62, 330.63 89.32, 406.42 0.85 M200.42 237.82 C271.33 154.69, 343.78 72.19, 406.42 0.85 M203.24 237.63 C252.04 179.34, 301.7 122.13, 409.25 0.65 M203.24 237.63 C257.15 173.89, 313.4 109.54, 409.25 0.65 M205.41 238.18 C278.71 156.44, 350.96 71.29, 412.07 0.45 M205.41 238.18 C259.54 177.85, 312.99 115.05, 412.07 0.45 M208.23 237.99 C255.24 181.64, 304.49 127.06, 414.23 1.01 M208.23 237.99 C255.71 185.24, 301.22 131.93, 414.23 1.01 M211.05 237.79 C278.52 162.42, 344.22 86.02, 417.05 0.81 M211.05 237.79 C279.07 159.68, 345.01 83.41, 417.05 0.81 M213.22 238.35 C293.04 145.85, 370.83 56.69, 419.88 0.61 M213.22 238.35 C257.25 184.55, 301.76 132.89, 419.88 0.61 M216.04 238.15 C298.41 144.19, 377.91 50.42, 422.7 0.42 M216.04 238.15 C259.58 189.21, 301.55 140.37, 422.7 0.42 M218.86 237.95 C297.42 145.57, 379.49 52.19, 424.86 0.97 M218.86 237.95 C269.04 181.45, 318.62 125.07, 424.86 0.97 M221.68 237.75 C291.89 158.77, 360.82 79.11, 427.68 0.78 M221.68 237.75 C280.11 173, 337.29 107, 427.68 0.78 M223.85 238.31 C305.24 145.65, 386.17 52.12, 430.51 0.58 M223.85 238.31 C291.31 163.11, 357.56 86.22, 430.51 0.58 M226.67 238.12 C302.03 149.11, 379.58 61.01, 433.33 0.38 M226.67 238.12 C294.55 160.41, 362.81 82.94, 433.33 0.38 M229.49 237.92 C276.11 184.49, 324.56 130.87, 435.49 0.94 M229.49 237.92 C285.49 173.76, 340.28 111.26, 435.49 0.94 M232.31 237.72 C289.28 169.87, 348.41 102.99, 438.31 0.74 M232.31 237.72 C281.49 182.31, 330.33 125.15, 438.31 0.74 M234.48 238.28 C309.17 150.63, 384.2 65.71, 441.14 0.54 M234.48 238.28 C301.75 162.31, 369.36 86.29, 441.14 0.54 M237.3 238.08 C310.08 153.05, 385.33 69.49, 443.3 1.1 M237.3 238.08 C298.69 168.03, 359.99 97.47, 443.3 1.1 M240.12 237.88 C321.88 145.2, 401.84 53.72, 446.12 0.9 M240.12 237.88 C300.77 170.72, 359.84 102.54, 446.12 0.9 M242.94 237.69 C284.09 185.98, 327.38 138.38, 448.94 0.71 M242.94 237.69 C303.58 167.1, 365.46 97.01, 448.94 0.71 M245.11 238.24 C311.26 164.27, 377.27 90.1, 451.77 0.51 M245.11 238.24 C293.27 184.35, 340.45 129.91, 451.77 0.51 M247.93 238.05 C321.9 151.78, 394.15 67.58, 453.93 1.07 M247.93 238.05 C295.67 183.35, 344.55 126.77, 453.93 1.07 M250.75 237.85 C306.86 173.6, 360.9 112.59, 456.75 0.87 M250.75 237.85 C324.86 155.18, 397.78 70.32, 456.75 0.87 M253.57 237.65 C309.1 173.79, 363.17 109.93, 459.57 0.67 M253.57 237.65 C298.59 186.19, 344.63 132.33, 459.57 0.67 M255.74 238.21 C336.81 146, 416.8 52.73, 462.4 0.48 M255.74 238.21 C324.46 159.73, 393.26 79.66, 462.4 0.48 M258.56 238.01 C318.13 168.57, 378.77 101.63, 464.56 1.03 M258.56 238.01 C331.34 152.75, 406.23 66.2, 464.56 1.03 M261.38 237.81 C334.74 154.78, 408.94 69.08, 467.38 0.84 M261.38 237.81 C344.11 144.99, 425.24 52.08, 467.38 0.84 M264.2 237.62 C333.49 156.42, 406.71 75.27, 470.2 0.64 M264.2 237.62 C318.74 175.21, 373.32 112.27, 470.2 0.64 M266.37 238.17 C320.05 176.7, 373.44 112.56, 473.03 0.44 M266.37 238.17 C308.47 187.9, 350.79 139.41, 473.03 0.44 M269.19 237.98 C314.28 187.9, 358.51 135.05, 475.19 1 M269.19 237.98 C342.4 155.09, 414.89 72, 475.19 1 M272.01 237.78 C337.28 163.91, 400.99 90.76, 478.01 0.8 M272.01 237.78 C313.66 188.45, 356.37 141.1, 478.01 0.8 M274.18 238.34 C327.12 175.19, 382.94 113.6, 480.83 0.6 M274.18 238.34 C344.78 158.29, 416.01 76.1, 480.83 0.6 M277 238.14 C344.82 159.19, 411.63 80.93, 483.66 0.41 M277 238.14 C335.28 171.25, 393.63 106.55, 483.66 0.41 M279.82 237.94 C342.34 164.78, 406.35 92.08, 485.82 0.96 M279.82 237.94 C355.97 151.6, 431.47 64.51, 485.82 0.96 M282.64 237.75 C337.16 174.86, 391.13 110.94, 488.64 0.77 M282.64 237.75 C337.49 174.78, 391.8 111.62, 488.64 0.77 M284.81 238.3 C356.41 154.15, 429.61 71.48, 491.46 0.57 M284.81 238.3 C338.49 178.59, 391.69 118.3, 491.46 0.57 M287.63 238.11 C351.36 168.4, 412.73 96.15, 494.29 0.37 M287.63 238.11 C342.38 173.86, 398.67 109.68, 494.29 0.37 M290.45 237.91 C346.37 175.39, 400.9 110.78, 496.45 0.93 M290.45 237.91 C341.11 181.52, 390.48 124.84, 496.45 0.93 M293.27 237.71 C359.49 164.74, 426.12 86.82, 499.27 0.73 M293.27 237.71 C363.29 157.35, 432.21 79.5, 499.27 0.73 M295.44 238.27 C353.05 173.25, 410.93 105.33, 502.09 0.53 M295.44 238.27 C350.44 174.6, 405.44 110.83, 502.09 0.53 M298.26 238.07 C345.51 181.79, 393.51 127.6, 504.26 1.09 M298.26 238.07 C374.06 152.54, 448.93 65.96, 504.26 1.09 M301.08 237.87 C364.91 162.87, 429.15 88.83, 507.08 0.89 M301.08 237.87 C358.2 172.49, 415.63 107.03, 507.08 0.89 M303.9 237.68 C359.6 175.98, 412.08 111.74, 509.9 0.7 M303.9 237.68 C351.09 184.12, 397.52 130.36, 509.9 0.7 M306.07 238.23 C355.66 181.49, 403.51 124.56, 512.72 0.5 M306.07 238.23 C373.92 159.62, 442.01 80.79, 512.72 0.5 M308.89 238.04 C366.58 169.82, 424.84 104.66, 514.89 1.06 M308.89 238.04 C359.5 181.46, 407.48 125.35, 514.89 1.06 M311.71 237.84 C355.28 191.52, 396.12 143.42, 517.71 0.86 M311.71 237.84 C367.46 172.99, 423.7 108.99, 517.71 0.86 M314.53 237.64 C367.89 179.57, 417.04 119.24, 520.53 0.66 M314.53 237.64 C366.18 175.49, 419.34 115.32, 520.53 0.66 M316.7 238.2 C386.11 157.28, 454.53 80.17, 523.35 0.47 M316.7 238.2 C369.86 176.11, 423.65 114.15, 523.35 0.47 M319.52 238 C392.91 154.37, 467.86 71.07, 525.52 1.02 M319.52 238 C365.22 185.18, 410.38 134.43, 525.52 1.02 M322.34 237.8 C366.98 186.79, 410.03 134.14, 528.34 0.83 M322.34 237.8 C375.87 174.62, 432.05 110.83, 528.34 0.83 M324.5 238.36 C390.88 165.05, 455.7 90.27, 531.16 0.63 M324.5 238.36 C405.34 146.21, 486.9 52.37, 531.16 0.63 M327.33 238.16 C368.99 188.85, 412.87 140.21, 533.98 0.43 M327.33 238.16 C401.45 152.92, 474.49 67.53, 533.98 0.43 M330.15 237.97 C385.29 174.69, 439.57 111.22, 536.15 0.99 M330.15 237.97 C397.87 162.97, 464.26 85.71, 536.15 0.99 M332.97 237.77 C405.61 156.78, 475.71 76.96, 538.97 0.79 M332.97 237.77 C375.46 189.26, 417.37 139.72, 538.97 0.79 M335.13 238.33 C389.63 176.66, 442.81 115.11, 541.79 0.59 M335.13 238.33 C396.85 168.84, 457.44 99.5, 541.79 0.59 M337.96 238.13 C384.16 183.72, 432.57 131.03, 544.61 0.4 M337.96 238.13 C417.92 143.36, 499.03 51.03, 544.61 0.4 M340.78 237.93 C417.39 151.7, 492.19 66.73, 546.78 0.95 M340.78 237.93 C391.67 179.06, 443.45 120.7, 546.78 0.95 M343.6 237.74 C410.33 162.95, 474.88 86.44, 549.6 0.76 M343.6 237.74 C404.17 167.49, 465.97 97.81, 549.6 0.76 M345.76 238.29 C423.51 147.4, 500.44 58.76, 552.42 0.56 M345.76 238.29 C402.99 170.98, 462.24 104.46, 552.42 0.56 M348.59 238.1 C403.92 173.88, 458.86 110.89, 554.59 1.12 M348.59 238.1 C391.65 189.67, 433.2 140.36, 554.59 1.12 M351.41 237.9 C413.34 163.35, 477.8 90.77, 556.75 1.67 M351.41 237.9 C423.26 153.35, 496.4 71.28, 556.75 1.67 M354.23 237.7 C434.73 145.73, 514.47 51.94, 559.58 1.48 M354.23 237.7 C399.95 185.33, 444.56 134.37, 559.58 1.48 M356.39 238.26 C417.42 167.47, 478.93 96.01, 561.74 2.03 M356.39 238.26 C430.62 154.12, 505.05 68.26, 561.74 2.03 M359.22 238.06 C433.99 152.9, 507.62 67.08, 563.91 2.59 M359.22 238.06 C424.74 160.14, 491.95 84.02, 563.91 2.59 M362.04 237.86 C424.59 165.92, 486.99 93.01, 566.07 3.15 M362.04 237.86 C417.65 172.22, 473.82 107.11, 566.07 3.15 M364.86 237.67 C434.02 157.92, 502.43 81.88, 568.24 3.71 M364.86 237.67 C432.64 160.11, 500.38 81.84, 568.24 3.71 M367.02 238.22 C447.52 146.21, 529.78 51.27, 569.75 5.02 M367.02 238.22 C409.72 189.42, 452.36 140.49, 569.75 5.02 M369.85 238.03 C418.66 182.21, 465.64 128.02, 571.26 6.33 M369.85 238.03 C440.66 158.48, 509.03 78.78, 571.26 6.33 M372.67 237.83 C424.5 175.41, 481.11 114.02, 573.42 6.89 M372.67 237.83 C442.03 159.78, 508.08 82.49, 573.42 6.89 M375.49 237.63 C425.78 180.62, 476.36 121.29, 574.93 8.2 M375.49 237.63 C429.97 175.1, 484.41 112.25, 574.93 8.2 M377.65 238.19 C447.55 160.69, 515.14 81.51, 576.44 9.51 M377.65 238.19 C451.27 152.52, 525.65 67.28, 576.44 9.51 M380.48 237.99 C451.54 155.74, 519.78 75.92, 577.95 10.82 M380.48 237.99 C445.46 162.29, 511.25 85.64, 577.95 10.82 M383.3 237.79 C433.3 180.67, 482.9 122.87, 578.8 12.89 M383.3 237.79 C447.44 165.34, 508.63 94.03, 578.8 12.89 M385.46 238.35 C459.07 153.95, 529.05 72.77, 579.66 14.96 M385.46 238.35 C451.03 162.91, 517.83 84.58, 579.66 14.96 M388.28 238.16 C455.13 162.51, 521.93 87.15, 580.51 17.03 M388.28 238.16 C443.33 173.44, 498.51 108.29, 580.51 17.03 M391.11 237.96 C451.29 171.86, 510.23 101.53, 581.36 19.09 M391.11 237.96 C435.75 185.67, 479.95 134.89, 581.36 19.09 M393.93 237.76 C434.6 193.64, 475 146.37, 582.22 21.16 M393.93 237.76 C450.01 174.37, 504.91 111.22, 582.22 21.16 M396.09 238.32 C439.7 189.08, 486.03 136.75, 582.41 23.98 M396.09 238.32 C459.78 164.92, 522.38 92.64, 582.41 23.98 M398.92 238.12 C462.14 166.17, 525.27 94.05, 583.92 25.29 M398.92 238.12 C445.54 185.06, 493.34 129.59, 583.92 25.29 M401.74 237.92 C441.83 195.44, 478.95 149.41, 584.12 28.11 M401.74 237.92 C453.01 180.25, 504.03 122.07, 584.12 28.11 M404.56 237.73 C448.4 184.99, 490.89 134.7, 583.66 31.69 M404.56 237.73 C473.44 158.08, 542.77 76.99, 583.66 31.69 M406.72 238.28 C466.18 169.84, 526.93 100.73, 583.86 34.51 M406.72 238.28 C460.15 177.06, 512.93 114.25, 583.86 34.51 M409.55 238.09 C474.23 160.07, 542.24 85.32, 584.06 37.33 M409.55 238.09 C452.32 188.25, 495.58 138.19, 584.06 37.33 M412.37 237.89 C464.13 177.78, 513.94 119.16, 583.6 40.91 M412.37 237.89 C473.5 169.59, 534.18 100.35, 583.6 40.91 M415.19 237.69 C481.06 161.62, 543.21 86.66, 583.8 43.73 M415.19 237.69 C456.08 192.54, 496.19 145.92, 583.8 43.73 M417.35 238.25 C461.32 188.74, 503.18 137.85, 583.99 46.55 M417.35 238.25 C480.85 164.4, 544.13 93.69, 583.99 46.55 M420.18 238.05 C460.2 194.48, 501.21 149.33, 583.53 50.13 M420.18 238.05 C473.1 176.07, 524.36 116.92, 583.53 50.13 M423 237.85 C477.36 176.29, 533.84 113.82, 583.73 52.95 M423 237.85 C460.06 195, 496.04 152.96, 583.73 52.95 M425.82 237.66 C481.96 172.33, 537.31 109.76, 583.93 55.77 M425.82 237.66 C475.48 180.01, 525.24 122.57, 583.93 55.77 M427.98 238.21 C480.84 179.83, 532.45 119.74, 584.13 58.59 M427.98 238.21 C487.18 173.66, 543.29 106.98, 584.13 58.59 M430.81 238.02 C468.89 193.26, 505.8 151.82, 583.67 62.17 M430.81 238.02 C491.34 168.36, 551.23 98.69, 583.67 62.17 M433.63 237.82 C465.29 199.59, 499.46 162.24, 583.86 64.99 M433.63 237.82 C485.58 174.78, 540.2 113.68, 583.86 64.99 M436.45 237.62 C471.48 197.25, 507.79 152.73, 584.06 67.81 M436.45 237.62 C494.25 171.55, 551.79 104.17, 584.06 67.81 M438.61 238.18 C470.46 201.54, 503.8 165.25, 583.6 71.39 M438.61 238.18 C490.86 177.28, 542.96 117.44, 583.6 71.39 M441.44 237.98 C470.3 203.95, 503.29 165.65, 583.8 74.21 M441.44 237.98 C483.49 192.39, 522.21 146.28, 583.8 74.21 M444.26 237.79 C492.53 183.32, 540.23 127.21, 584 77.03 M444.26 237.79 C480.69 198.25, 515.48 157.25, 584 77.03 M446.42 238.34 C478.11 200.68, 511.62 165.63, 584.19 79.85 M446.42 238.34 C489.7 189.64, 531.14 142.75, 584.19 79.85 M449.24 238.15 C486.96 195.86, 526.6 153.39, 583.74 83.43 M449.24 238.15 C490.8 188.78, 531.59 140.59, 583.74 83.43 M452.07 237.95 C491.95 191.28, 534.99 143.8, 583.93 86.25 M452.07 237.95 C484.12 201.01, 517.68 163, 583.93 86.25 M454.89 237.75 C491.04 199.22, 522.43 161.36, 584.13 89.07 M454.89 237.75 C497.23 190.44, 538.78 142.6, 584.13 89.07 M457.05 238.31 C490.87 198.91, 522.4 163.23, 583.67 92.65 M457.05 238.31 C502.02 184.47, 549.43 131.75, 583.67 92.65 M459.87 238.11 C489.55 205.94, 515.48 176.43, 583.87 95.47 M459.87 238.11 C491.92 201.6, 522.39 164.99, 583.87 95.47 M462.7 237.91 C490.2 209.73, 516.9 178.59, 584.07 98.29 M462.7 237.91 C495.82 200.61, 526.01 164.42, 584.07 98.29 M465.52 237.72 C493.85 203.07, 520.14 172.53, 584.26 101.11 M465.52 237.72 C492.4 206.58, 519.14 177.41, 584.26 101.11 M467.68 238.27 C505.64 190.7, 547.25 144.5, 583.81 104.69 M467.68 238.27 C512.31 189.55, 554.99 138.27, 583.81 104.69 M470.5 238.08 C498.96 201.14, 530.65 165.09, 584 107.51 M470.5 238.08 C503.96 198.23, 537.72 160.05, 584 107.51 M473.33 237.88 C508.55 194.66, 546.05 153.48, 584.2 110.33 M473.33 237.88 C511.26 194.96, 547.06 153.46, 584.2 110.33 M476.15 237.68 C503.11 204.14, 530.94 172.86, 583.74 113.91 M476.15 237.68 C508.31 201.02, 540.63 162.58, 583.74 113.91 M478.31 238.24 C505.41 204.41, 537.17 172.28, 583.94 116.73 M478.31 238.24 C519.71 190.16, 561.03 143.31, 583.94 116.73 M481.13 238.04 C520.03 192.15, 559.44 147.2, 584.14 119.55 M481.13 238.04 C505.06 209.6, 527.78 183.32, 584.14 119.55 M483.96 237.84 C522.06 190, 562.71 146.43, 584.33 122.37 M483.96 237.84 C520.47 194.97, 556.72 154, 584.33 122.37 M486.78 237.65 C507.78 213.12, 528.99 187.26, 583.87 125.95 M486.78 237.65 C524.29 195.36, 563.33 151.4, 583.87 125.95 M488.94 238.2 C518.94 202.22, 552.62 162.06, 584.07 128.77 M488.94 238.2 C521.97 200.76, 553.07 161.49, 584.07 128.77 M491.76 238.01 C511.79 215.03, 531.65 190.79, 584.27 131.59 M491.76 238.01 C518.65 207.3, 547.23 174.02, 584.27 131.59 M494.59 237.81 C517.48 208.27, 540.9 182.4, 583.81 135.17 M494.59 237.81 C526.32 201.22, 558.34 165.35, 583.81 135.17 M497.41 237.61 C531.09 200.2, 566.02 160.13, 584.01 137.99 M497.41 237.61 C530.26 199.68, 563.57 161.94, 584.01 137.99 M499.57 238.17 C531.81 203.85, 562.29 167.38, 584.2 140.81 M499.57 238.17 C522.39 212.98, 545.04 186.35, 584.2 140.81 M502.39 237.97 C519.39 219.71, 536.33 197.74, 584.4 143.63 M502.39 237.97 C522.03 214.92, 542.72 191.37, 584.4 143.63 M505.22 237.78 C528.64 209.78, 553.9 178.7, 583.94 147.21 M505.22 237.78 C532.49 207.73, 557.64 177.5, 583.94 147.21 M507.38 238.33 C531.9 212.08, 556.38 182.55, 584.14 150.03 M507.38 238.33 C526.35 218.56, 544.26 196.85, 584.14 150.03 M510.2 238.14 C532.7 212.87, 550.81 190.27, 584.34 152.85 M510.2 238.14 C528.12 217.53, 545.66 196.86, 584.34 152.85 M513.02 237.94 C529.89 219.41, 549.45 199.79, 583.88 156.43 M513.02 237.94 C533.42 214.47, 552.75 191.26, 583.88 156.43 M515.85 237.74 C533.32 216.68, 552.01 194.9, 584.08 159.25 M515.85 237.74 C531.84 219.46, 548.1 200.58, 584.08 159.25 M518.01 238.3 C538.63 214.99, 557.26 194.09, 584.27 162.07 M518.01 238.3 C531.9 221.78, 546.29 204.35, 584.27 162.07 M520.83 238.1 C542.72 209.84, 566.27 183.26, 584.47 164.89 M520.83 238.1 C534.83 221.66, 550.44 205.97, 584.47 164.89 M523.65 237.9 C546.75 211.81, 570.47 184.4, 584.01 168.47 M523.65 237.9 C540.96 218.26, 557.77 198.13, 584.01 168.47 M526.48 237.71 C545.22 215.92, 568.3 190.04, 584.21 171.29 M526.48 237.71 C540.08 219.86, 555.19 203.15, 584.21 171.29 M528.64 238.26 C546.69 217.21, 562.21 198.91, 584.41 174.11 M528.64 238.26 C541.67 224.74, 554.28 210.17, 584.41 174.11 M531.46 238.07 C543.96 224.82, 554.35 210.88, 583.95 177.69 M531.46 238.07 C546.27 222.49, 558.3 206.45, 583.95 177.69 M534.28 237.87 C546.29 226.74, 557.54 209.33, 584.15 180.51 M534.28 237.87 C544.17 225.62, 553.76 214.04, 584.15 180.51 M537.11 237.67 C553.04 221.98, 566.68 203.74, 584.34 183.33 M537.11 237.67 C550.28 221.71, 563.93 206.53, 584.34 183.33 M539.27 238.23 C556.75 220.97, 569.9 203.98, 584.54 186.15 M539.27 238.23 C551.59 224.23, 564.46 209.99, 584.54 186.15 M542.09 238.03 C556.63 221.22, 571.71 205.6, 584.08 189.73 M542.09 238.03 C554.61 225.27, 564.07 212.61, 584.08 189.73 M544.91 237.83 C554.59 226.91, 564.89 214.68, 584.28 192.55 M544.91 237.83 C556.8 225.22, 567.67 211.73, 584.28 192.55 M547.74 237.64 C555.72 229.02, 563.42 217.81, 584.48 195.37 M547.74 237.64 C557.64 226.69, 567.37 213.79, 584.48 195.37 M549.9 238.2 C557.41 228.61, 566.68 220.57, 584.02 198.95 M549.9 238.2 C558.07 229.48, 565.27 220.91, 584.02 198.95 M552.72 238 C558.24 228.37, 567.81 222.81, 584.21 201.77 M552.72 238 C560.58 228.41, 566.67 219.64, 584.21 201.77 M555.54 237.8 C563.06 229.45, 571.37 217.83, 583.76 205.35 M555.54 237.8 C562.95 228.99, 569.68 222.1, 583.76 205.35 M559.02 236.85 C568.79 229.51, 574.55 217.34, 583.3 208.92 M559.02 236.85 C563.96 230.8, 570.64 222.36, 583.3 208.92 M561.84 236.65 C570.81 228.94, 578.36 217.92, 582.84 212.5 M561.84 236.65 C566.95 230.25, 570.45 224.8, 582.84 212.5 M565.98 234.94 C570.55 228.73, 577.81 218.75, 582.38 216.08 M565.98 234.94 C569.15 231.43, 574.35 226.49, 582.38 216.08 M570.77 232.48 C575.16 229.74, 576.38 225.18, 581.92 219.65 M570.77 232.48 C574.43 229.52, 575.75 225.95, 581.92 219.65" stroke="#ffc9c9" stroke-width="0.25" fill="none"/><path d="M32 0 C230.58 2.07, 429.22 1.95, 551.21 0 M32 0 C222.28 1.93, 412.99 1.55, 551.21 0 M551.21 0 C572.73 -1.85, 581.53 12.6, 583.21 32 M551.21 0 C574.2 -2.02, 581.9 10.85, 583.21 32 M583.21 32 C583.07 94.9, 582.89 158.71, 583.21 204.83 M583.21 32 C584.53 98.85, 584.08 165.68, 583.21 204.83 M583.21 204.83 C584.88 224.98, 574.12 236.05, 551.21 236.83 M583.21 204.83 C580.99 224.39, 571.82 235.7, 551.21 236.83 M551.21 236.83 C422.54 237.98, 292.57 238.02, 32 236.83 M551.21 236.83 C353.99 237.17, 156.33 236.62, 32 236.83 M32 236.83 C10.23 236.59, 0.94 226.92, 0 204.83 M32 236.83 C11.51 237.74, -0.75 225.52, 0 204.83 M0 204.83 C-1.87 151.07, 1.91 95.71, 0 32 M0 204.83 C-2.18 150.93, -2.56 96.95, 0 32 M0 32 C0.72 11.51, 12.43 -0.05, 32 0 M0 32 C1.95 9.23, 11.15 -0.49, 32 0" stroke="#1e1e1e" stroke-width="0.5" fill="none"/></g></svg>